# This file uses centimeters as units for non-parametric coordinates.

mtllib mattress.mtl
g default
v -2.299661 1.429219 1.843316
v 2.636283 1.429219 1.843316
v -2.299661 1.429219 -5.092640
v 2.636283 1.429219 -5.092640
v -2.130595 2.188641 1.843316
v -2.254360 2.039694 1.843316
v -2.299661 1.836230 1.843316
v -1.961530 2.243159 1.843316
v -2.299661 1.836230 -5.092640
v -2.254360 2.039694 -5.092640
v -2.130595 2.188641 -5.092640
v -1.961530 2.243159 -5.092640
v 2.590982 2.039694 1.843316
v 2.467217 2.188641 1.843316
v 2.298152 2.243159 1.843316
v 2.636283 1.836230 1.843316
v 2.636283 1.836230 -5.092640
v 2.298152 2.243159 -5.092640
v 2.467217 2.188641 -5.092640
v 2.590982 2.039694 -5.092640
vt 0.015469 0.554463
vt 0.015469 0.001582
vt 0.355018 0.554463
vt 0.355018 0.001582
vt 0.376386 0.001582
vt 0.769841 0.001582
vt 0.376386 0.554463
vt 0.769841 0.554463
vt 0.777870 0.554463
vt 0.777870 0.001582
vt 0.810314 0.554463
vt 0.810314 0.001582
vt 0.846083 0.554463
vt 0.846083 0.001582
vt 0.878527 0.554463
vt 0.878527 0.001582
vt 0.894746 0.001582
vt 0.894746 0.554463
vt 0.906619 0.001582
vt 0.906619 0.554463
vt 0.001992 0.001582
vt 0.001992 0.554463
vt 0.368495 0.001582
vt 0.368495 0.554463
vt 0.838405 0.554463
vt 0.826532 0.554463
vt 0.838405 0.001582
vt 0.826532 0.001582
vt 0.914297 0.395037
vt 0.914297 0.001582
vt 0.946741 0.395037
vt 0.962959 0.391426
vt 0.974832 0.381561
vt 0.979178 0.368084
vt 0.946741 0.001582
vt 0.962959 0.005193
vt 0.974832 0.015058
vt 0.979178 0.028535
vt 0.998008 0.399029
vt 0.998008 0.792485
vt 0.965564 0.399029
vt 0.949346 0.402640
vt 0.937473 0.412506
vt 0.933127 0.425982
vt 0.965564 0.792485
vt 0.949346 0.788874
vt 0.937473 0.779008
vt 0.933127 0.765531
vn -0.012309 0.999924 0.000000
vn -0.012309 0.999924 -0.000000
vn 0.012309 0.999924 0.000000
vn 0.012309 0.999924 -0.000000
vn 0.000000 -1.000000 0.000000
vn 0.000000 -1.000000 0.000000
vn 0.000000 -1.000000 0.000000
vn 0.000000 -1.000000 0.000000
vn 1.000000 0.000000 0.000000
vn 1.000000 0.000000 0.000000
vn 0.997258 0.074002 -0.000000
vn 0.997258 0.074002 -0.000000
vn -1.000000 0.000000 0.000000
vn -1.000000 0.000000 0.000000
vn -0.997258 0.074002 0.000000
vn -0.997258 0.074002 0.000000
vn -0.976099 0.217325 0.000000
vn -0.976099 0.217325 0.000000
vn -0.769129 0.639094 0.000000
vn -0.570605 0.821225 0.000000
vn -0.769129 0.639094 0.000000
vn -0.570605 0.821225 0.000000
vn 0.570606 0.821224 -0.000000
vn 0.570604 0.821226 0.000000
vn 0.769129 0.639093 0.000000
vn 0.769128 0.639095 0.000000
vn 0.976099 0.217327 0.000000
vn 0.976099 0.217324 -0.000000
vn 0.000000 0.000000 1.000000
vn -0.000000 0.000000 1.000000
vn -0.000000 0.000000 1.000000
vn -0.000001 0.000000 1.000000
vn 0.000000 0.000000 1.000000
vn -0.000001 0.000000 1.000000
vn 0.000000 0.000000 1.000000
vn 0.000000 0.000000 1.000000
vn 0.000000 0.000000 1.000000
vn 0.000001 0.000000 1.000000
vn 0.000000 0.000000 -1.000000
vn -0.000000 0.000000 -1.000000
vn -0.000000 0.000000 -1.000000
vn -0.000000 0.000000 -1.000000
vn 0.000000 0.000000 -1.000000
vn 0.000001 0.000000 -1.000000
vn 0.000000 0.000000 -1.000000
vn 0.000000 0.000000 -1.000000
vn -0.000000 0.000000 -1.000000
vn 0.000000 0.000000 -1.000000
s 1
g polySurface117 polySurface88
usemtl lambert18SG
f 12/1/1 8/2/2 18/3/3
f 18/3/3 8/2/2 15/4/4
s 2
f 3/5/5 4/6/6 1/7/7
f 1/7/7 4/6/6 2/8/8
s 3
f 2/9/9 4/10/10 16/11/11
f 16/11/11 4/10/10 17/12/12
s 4
f 3/13/13 1/14/14 9/15/15
f 9/15/15 1/14/14 7/16/16
f 7/16/16 6/17/17 9/15/15
f 9/15/15 6/17/17 10/18/18
s 1
f 6/17/19 5/19/20 10/18/21
f 10/18/21 5/19/20 11/20/22
f 5/21/20 8/2/2 11/22/22
f 11/22/22 8/2/2 12/1/1
f 15/4/4 14/23/23 18/3/3
f 18/3/3 14/23/23 19/24/24
f 14/25/23 13/26/25 19/27/24
f 19/27/24 13/26/25 20/28/26
s 3
f 13/26/27 16/11/11 20/28/28
f 20/28/28 16/11/11 17/12/12
s 6
f 1/29/29 2/30/30 7/31/31
f 7/31/31 2/30/30 6/32/32
f 6/32/32 2/30/30 5/33/33
f 5/33/33 2/30/30 8/34/34
f 2/30/30 16/35/35 8/34/34
f 16/35/35 13/36/36 8/34/34
f 13/36/36 14/37/37 8/34/34
f 14/37/37 15/38/38 8/34/34
s 7
f 4/39/39 3/40/40 17/41/41
f 17/41/41 3/40/40 20/42/42
f 20/42/42 3/40/40 19/43/43
f 19/43/43 3/40/40 18/44/44
f 3/40/40 9/45/45 18/44/44
f 9/45/45 10/46/46 18/44/44
f 10/46/46 11/47/47 18/44/44
f 11/47/47 12/48/48 18/44/44
