# This file uses centimeters as units for non-parametric coordinates.

mtllib night.mtl
g default
v 1.224703 4.229621 -7.208929
v -5.370046 4.229621 -7.208929
v 1.224703 9.964582 -7.208929
v -5.370046 9.964582 -7.208929
v 1.224703 9.964582 -13.579910
v -5.370046 9.964582 -13.579910
v 1.224703 4.229621 -13.579910
v -5.370046 4.229621 -13.579910
vt 0.327576 0.001992
vt 0.327576 0.339177
vt 0.001833 0.001992
vt 0.001833 0.339177
vt 0.626933 0.001992
vt 0.626933 0.339177
vt 0.333709 0.001992
vt 0.333709 0.339177
vt 0.918126 0.342849
vt 0.918126 0.680034
vt 0.592382 0.342849
vt 0.592382 0.680034
vt 0.293513 0.668593
vt 0.293513 0.342849
vt 0.586738 0.668593
vt 0.586738 0.342849
vt 0.001833 0.998008
vt 0.001833 0.672265
vt 0.295057 0.998008
vt 0.295057 0.672265
vn 0.000000 -1.000000 0.000000
vn 0.000000 -1.000000 0.000000
vn 0.000000 -1.000000 0.000000
vn 0.000000 -1.000000 0.000000
vn 0.000000 0.000000 1.000000
vn 0.000000 0.000000 1.000000
vn 0.000000 0.000000 1.000000
vn 0.000000 0.000000 1.000000
vn 0.000000 1.000000 0.000000
vn 0.000000 1.000000 0.000000
vn 0.000000 1.000000 0.000000
vn 0.000000 1.000000 0.000000
vn 1.000000 0.000000 0.000000
vn 1.000000 0.000000 0.000000
vn 1.000000 0.000000 0.000000
vn 1.000000 0.000000 0.000000
vn -1.000000 0.000000 0.000000
vn -1.000000 0.000000 0.000000
vn -1.000000 0.000000 0.000000
vn -1.000000 0.000000 0.000000
s 1
g pasted__polySurface73 pasted__polySurface41 group9
usemtl pasted__pasted__lambert6SG
f 3/1/1 4/2/2 5/3/3
f 5/3/3 4/2/2 6/4/4
s 2
f 5/5/5 6/6/6 7/7/7
f 7/7/7 6/6/6 8/8/8
s 3
f 7/9/9 8/10/10 1/11/11
f 1/11/11 8/10/10 2/12/12
s 4
f 2/13/13 8/14/14 4/15/15
f 4/15/15 8/14/14 6/16/16
s 5
f 7/17/17 1/18/18 5/19/19
f 5/19/19 1/18/18 3/20/20
